<svg xmlns="http://www.w3.org/2000/svg" version="1.1" xmlns:xlink="http://www.w3.org/1999/xlink" xmlns:svgjs="http://svgjs.com/svgjs" width="2440" height="1000" preserveAspectRatio="none" viewBox="0 0 2440 1000"><g mask="url(&quot;#SvgjsMask1075&quot;)" fill="none"><rect width="2440" height="1000" x="0" y="0" fill="rgba(37, 41, 52, 1)"></rect><path d="M1542 104L1030 616" stroke-width="6" stroke="url(#SvgjsLinearGradient1076)" stroke-linecap="round" class="TopRight"></path><path d="M592 51L129 514" stroke-width="10" stroke="url(#SvgjsLinearGradient1077)" stroke-linecap="round" class="BottomLeft"></path><path d="M2072 511L2716 -133" stroke-width="8" stroke="url(#SvgjsLinearGradient1078)" stroke-linecap="round" class="TopRight"></path><path d="M411 463L1092 -218" stroke-width="10" stroke="url(#SvgjsLinearGradient1077)" stroke-linecap="round" class="BottomLeft"></path><path d="M522 49L1121 -550" stroke-width="6" stroke="url(#SvgjsLinearGradient1078)" stroke-linecap="round" class="TopRight"></path><path d="M848 608L459 997" stroke-width="6" stroke="url(#SvgjsLinearGradient1077)" stroke-linecap="round" class="BottomLeft"></path><path d="M1456 886L1867 475" stroke-width="8" stroke="url(#SvgjsLinearGradient1078)" stroke-linecap="round" class="TopRight"></path><path d="M452 682L189 945" stroke-width="6" stroke="url(#SvgjsLinearGradient1076)" stroke-linecap="round" class="TopRight"></path><path d="M3 951L382 572" stroke-width="10" stroke="url(#SvgjsLinearGradient1078)" stroke-linecap="round" class="TopRight"></path><path d="M2083 346L1334 1095" stroke-width="10" stroke="url(#SvgjsLinearGradient1079)" stroke-linecap="round" class="BottomLeft"></path><path d="M2034 881L2343 572" stroke-width="6" stroke="url(#SvgjsLinearGradient1077)" stroke-linecap="round" class="BottomLeft"></path><path d="M2171 404L1496 1079" stroke-width="10" stroke="url(#SvgjsLinearGradient1076)" stroke-linecap="round" class="TopRight"></path><path d="M2077 819L2376 520" stroke-width="10" stroke="url(#SvgjsLinearGradient1078)" stroke-linecap="round" class="TopRight"></path><path d="M2387 756L3116 27" stroke-width="8" stroke="url(#SvgjsLinearGradient1077)" stroke-linecap="round" class="BottomLeft"></path><path d="M2207 252L2724 -265" stroke-width="8" stroke="url(#SvgjsLinearGradient1076)" stroke-linecap="round" class="TopRight"></path><path d="M2126 720L2717 129" stroke-width="6" stroke="url(#SvgjsLinearGradient1078)" stroke-linecap="round" class="TopRight"></path><path d="M273 691L894 70" stroke-width="8" stroke="url(#SvgjsLinearGradient1077)" stroke-linecap="round" class="BottomLeft"></path><path d="M506 906L872 540" stroke-width="6" stroke="url(#SvgjsLinearGradient1076)" stroke-linecap="round" class="TopRight"></path><path d="M2432 632L3071 -7" stroke-width="10" stroke="url(#SvgjsLinearGradient1078)" stroke-linecap="round" class="TopRight"></path><path d="M917 754L1325 346" stroke-width="8" stroke="url(#SvgjsLinearGradient1079)" stroke-linecap="round" class="BottomLeft"></path><path d="M704 143L322 525" stroke-width="8" stroke="url(#SvgjsLinearGradient1078)" stroke-linecap="round" class="TopRight"></path><path d="M356 985L1012 329" stroke-width="6" stroke="url(#SvgjsLinearGradient1076)" stroke-linecap="round" class="TopRight"></path><path d="M153 765L629 289" stroke-width="8" stroke="url(#SvgjsLinearGradient1078)" stroke-linecap="round" class="TopRight"></path><path d="M309 890L-390 1589" stroke-width="8" stroke="url(#SvgjsLinearGradient1076)" stroke-linecap="round" class="TopRight"></path><path d="M18 203L-608 829" stroke-width="10" stroke="url(#SvgjsLinearGradient1079)" stroke-linecap="round" class="BottomLeft"></path><path d="M685 742L179 1248" stroke-width="8" stroke="url(#SvgjsLinearGradient1076)" stroke-linecap="round" class="TopRight"></path><path d="M198 570L-417 1185" stroke-width="8" stroke="url(#SvgjsLinearGradient1078)" stroke-linecap="round" class="TopRight"></path><path d="M2314 793L2689 418" stroke-width="8" stroke="url(#SvgjsLinearGradient1077)" stroke-linecap="round" class="BottomLeft"></path><path d="M1147 659L484 1322" stroke-width="8" stroke="url(#SvgjsLinearGradient1076)" stroke-linecap="round" class="TopRight"></path><path d="M2333 12L1892 453" stroke-width="8" stroke="url(#SvgjsLinearGradient1078)" stroke-linecap="round" class="TopRight"></path><path d="M1328 184L588 924" stroke-width="10" stroke="url(#SvgjsLinearGradient1076)" stroke-linecap="round" class="TopRight"></path><path d="M171 666L687 150" stroke-width="8" stroke="url(#SvgjsLinearGradient1076)" stroke-linecap="round" class="TopRight"></path><path d="M2321 177L2681 -183" stroke-width="6" stroke="url(#SvgjsLinearGradient1076)" stroke-linecap="round" class="TopRight"></path><path d="M1548 266L1026 788" stroke-width="8" stroke="url(#SvgjsLinearGradient1077)" stroke-linecap="round" class="BottomLeft"></path><path d="M157 943L712 388" stroke-width="6" stroke="url(#SvgjsLinearGradient1076)" stroke-linecap="round" class="TopRight"></path><path d="M631 137L1011 -243" stroke-width="8" stroke="url(#SvgjsLinearGradient1076)" stroke-linecap="round" class="TopRight"></path><path d="M541 9L230 320" stroke-width="6" stroke="url(#SvgjsLinearGradient1076)" stroke-linecap="round" class="TopRight"></path><path d="M1652 164L1017 799" stroke-width="6" stroke="url(#SvgjsLinearGradient1077)" stroke-linecap="round" class="BottomLeft"></path><path d="M1154 972L642 1484" stroke-width="6" stroke="url(#SvgjsLinearGradient1076)" stroke-linecap="round" class="TopRight"></path><path d="M227 349L975 -399" stroke-width="10" stroke="url(#SvgjsLinearGradient1078)" stroke-linecap="round" class="TopRight"></path><path d="M1083 345L1628 -200" stroke-width="8" stroke="url(#SvgjsLinearGradient1077)" stroke-linecap="round" class="BottomLeft"></path><path d="M1700 138L1113 725" stroke-width="10" stroke="url(#SvgjsLinearGradient1076)" stroke-linecap="round" class="TopRight"></path><path d="M1871 776L2311 336" stroke-width="8" stroke="url(#SvgjsLinearGradient1079)" stroke-linecap="round" class="BottomLeft"></path><path d="M22 229L-232 483" stroke-width="6" stroke="url(#SvgjsLinearGradient1076)" stroke-linecap="round" class="TopRight"></path><path d="M406 750L719 437" stroke-width="10" stroke="url(#SvgjsLinearGradient1078)" stroke-linecap="round" class="TopRight"></path><path d="M1227 844L1534 537" stroke-width="10" stroke="url(#SvgjsLinearGradient1078)" stroke-linecap="round" class="TopRight"></path><path d="M2030 946L2361 615" stroke-width="10" stroke="url(#SvgjsLinearGradient1079)" stroke-linecap="round" class="BottomLeft"></path><path d="M1065 156L709 512" stroke-width="6" stroke="url(#SvgjsLinearGradient1076)" stroke-linecap="round" class="TopRight"></path><path d="M2153 250L2443 -40" stroke-width="6" stroke="url(#SvgjsLinearGradient1078)" stroke-linecap="round" class="TopRight"></path><path d="M796 171L1113 -146" stroke-width="8" stroke="url(#SvgjsLinearGradient1076)" stroke-linecap="round" class="TopRight"></path><path d="M706 250L-23 979" stroke-width="6" stroke="url(#SvgjsLinearGradient1078)" stroke-linecap="round" class="TopRight"></path><path d="M142 217L868 -509" stroke-width="8" stroke="url(#SvgjsLinearGradient1076)" stroke-linecap="round" class="TopRight"></path><path d="M1886 351L2444 -207" stroke-width="8" stroke="url(#SvgjsLinearGradient1076)" stroke-linecap="round" class="TopRight"></path><path d="M337 142L679 -200" stroke-width="6" stroke="url(#SvgjsLinearGradient1076)" stroke-linecap="round" class="TopRight"></path><path d="M1716 734L1068 1382" stroke-width="10" stroke="url(#SvgjsLinearGradient1077)" stroke-linecap="round" class="BottomLeft"></path><path d="M2051 773L2304 520" stroke-width="10" stroke="url(#SvgjsLinearGradient1077)" stroke-linecap="round" class="BottomLeft"></path><path d="M1748 253L2309 -308" stroke-width="8" stroke="url(#SvgjsLinearGradient1077)" stroke-linecap="round" class="BottomLeft"></path><path d="M969 744L385 1328" stroke-width="10" stroke="url(#SvgjsLinearGradient1077)" stroke-linecap="round" class="BottomLeft"></path><path d="M1593 43L1975 -339" stroke-width="10" stroke="url(#SvgjsLinearGradient1079)" stroke-linecap="round" class="BottomLeft"></path><path d="M1186 184L1590 -220" stroke-width="6" stroke="url(#SvgjsLinearGradient1076)" stroke-linecap="round" class="TopRight"></path><path d="M426 728L-243 1397" stroke-width="6" stroke="url(#SvgjsLinearGradient1079)" stroke-linecap="round" class="BottomLeft"></path><path d="M1178 486L1642 22" stroke-width="6" stroke="url(#SvgjsLinearGradient1077)" stroke-linecap="round" class="BottomLeft"></path><path d="M2020 450L1469 1001" stroke-width="6" stroke="url(#SvgjsLinearGradient1078)" stroke-linecap="round" class="TopRight"></path><path d="M2418 842L2015 1245" stroke-width="6" stroke="url(#SvgjsLinearGradient1077)" stroke-linecap="round" class="BottomLeft"></path><path d="M1458 695L1791 362" stroke-width="6" stroke="url(#SvgjsLinearGradient1077)" stroke-linecap="round" class="BottomLeft"></path><path d="M2370 664L3093 -59" stroke-width="6" stroke="url(#SvgjsLinearGradient1078)" stroke-linecap="round" class="TopRight"></path></g><defs><mask id="SvgjsMask1075"><rect width="2440" height="1000" fill="#ffffff"></rect></mask><linearGradient x1="0%" y1="100%" x2="100%" y2="0%" id="SvgjsLinearGradient1076"><stop stop-color="rgba(255, 255, 255, 0)" offset="0"></stop><stop stop-color="rgba(255, 255, 255, 1)" offset="1"></stop></linearGradient><linearGradient x1="100%" y1="0%" x2="0%" y2="100%" id="SvgjsLinearGradient1077"><stop stop-color="rgba(255, 128, 128, 0)" offset="0"></stop><stop stop-color="rgba(255, 128, 128, 1)" offset="1"></stop></linearGradient><linearGradient x1="0%" y1="100%" x2="100%" y2="0%" id="SvgjsLinearGradient1078"><stop stop-color="rgba(255, 128, 128, 0)" offset="0"></stop><stop stop-color="rgba(255, 128, 128, 1)" offset="1"></stop></linearGradient><linearGradient x1="100%" y1="0%" x2="0%" y2="100%" id="SvgjsLinearGradient1079"><stop stop-color="rgba(255, 255, 255, 0)" offset="0"></stop><stop stop-color="rgba(255, 255, 255, 1)" offset="1"></stop></linearGradient></defs></svg>