<svg xmlns="http://www.w3.org/2000/svg" version="1.1" xmlns:xlink="http://www.w3.org/1999/xlink" xmlns:svgjs="http://svgjs.com/svgjs" width="2000" height="2000" preserveAspectRatio="none" viewBox="0 0 2000 2000">
    <g mask="url(&quot;#SvgjsMask1026&quot;)" fill="none">
        <rect width="2000" height="2000" x="0" y="0" fill="url(#SvgjsLinearGradient1027)"></rect>
        <path d="M2000 0L1130.35 0L2000 946.29z" fill="rgba(255, 255, 255, .1)"></path>
        <path d="M1130.35 0L2000 946.29L2000 973.56L600.8 0z" fill="rgba(255, 255, 255, .075)"></path>
        <path d="M600.8000000000002 0L2000 973.56L2000 1488.28L268.9800000000002 0z" fill="rgba(255, 255, 255, .05)"></path>
        <path d="M268.98000000000025 0L2000 1488.28L2000 1619.02L238.42000000000024 0z" fill="rgba(255, 255, 255, .025)"></path>
        <path d="M0 2000L490.4 2000L0 1627.62z" fill="rgba(0, 0, 0, .1)"></path>
        <path d="M0 1627.62L490.4 2000L1026.03 2000L0 1399.9199999999998z" fill="rgba(0, 0, 0, .075)"></path>
        <path d="M0 1399.92L1026.03 2000L1412.04 2000L0 1205.3400000000001z" fill="rgba(0, 0, 0, .05)"></path>
        <path d="M0 1205.3400000000001L1412.04 2000L1588.4 2000L0 1172.8500000000001z" fill="rgba(0, 0, 0, .025)"></path>
    </g>
    <defs>
        <mask id="SvgjsMask1026">
            <rect width="2000" height="2000" fill="#ffffff"></rect>
        </mask>
        <linearGradient x1="100%" y1="50%" x2="0%" y2="50%" gradientUnits="userSpaceOnUse" id="SvgjsLinearGradient1027">
            <stop stop-color="#0e2a47" offset="0"></stop>
            <stop stop-color="rgba(20, 184, 166, 1)" offset="1"></stop>
        </linearGradient>
    </defs>
</svg>