<svg xmlns="http://www.w3.org/2000/svg" version="1.1" xmlns:xlink="http://www.w3.org/1999/xlink" xmlns:svgjs="http://svgjs.com/svgjs" width="2000" height="2000" preserveAspectRatio="none" viewBox="0 0 2000 2000">
    <g mask="url(&quot;#SvgjsMask1220&quot;)" fill="none">
        <rect width="2000" height="2000" x="0" y="0" fill="rgba(37, 41, 52, 1)"></rect>
        <path d="M628 277L1306 -401" stroke-width="8" stroke="url(#SvgjsLinearGradient1221)" stroke-linecap="round" class="BottomLeft"></path>
        <path d="M1804 1420L3147 77" stroke-width="8" stroke="url(#SvgjsLinearGradient1221)" stroke-linecap="round" class="BottomLeft"></path>
        <path d="M954 1706L155 2505" stroke-width="6" stroke="url(#SvgjsLinearGradient1221)" stroke-linecap="round" class="BottomLeft"></path>
        <path d="M1905 1621L2526 1000" stroke-width="6" stroke="url(#SvgjsLinearGradient1222)" stroke-linecap="round" class="TopRight"></path>
        <path d="M175 503L-952 1630" stroke-width="6" stroke="url(#SvgjsLinearGradient1222)" stroke-linecap="round" class="TopRight"></path>
        <path d="M230 549L-693 1472" stroke-width="8" stroke="url(#SvgjsLinearGradient1223)" stroke-linecap="round" class="TopRight"></path>
        <path d="M923 698L-519 2140" stroke-width="8" stroke="url(#SvgjsLinearGradient1221)" stroke-linecap="round" class="BottomLeft"></path>
        <path d="M640 1534L46 2128" stroke-width="10" stroke="url(#SvgjsLinearGradient1222)" stroke-linecap="round" class="TopRight"></path>
        <path d="M1789 975L324 2440" stroke-width="6" stroke="url(#SvgjsLinearGradient1221)" stroke-linecap="round" class="BottomLeft"></path>
        <path d="M1408 1368L2497 279" stroke-width="8" stroke="url(#SvgjsLinearGradient1222)" stroke-linecap="round" class="TopRight"></path>
        <path d="M1991 981L2633 339" stroke-width="8" stroke="url(#SvgjsLinearGradient1224)" stroke-linecap="round" class="BottomLeft"></path>
        <path d="M1127 1987L287 2827" stroke-width="10" stroke="url(#SvgjsLinearGradient1224)" stroke-linecap="round" class="BottomLeft"></path>
        <path d="M1261 434L2626 -931" stroke-width="6" stroke="url(#SvgjsLinearGradient1221)" stroke-linecap="round" class="BottomLeft"></path>
        <path d="M613 1118L1955 -224" stroke-width="10" stroke="url(#SvgjsLinearGradient1221)" stroke-linecap="round" class="BottomLeft"></path>
        <path d="M1821 765L1221 1365" stroke-width="6" stroke="url(#SvgjsLinearGradient1223)" stroke-linecap="round" class="TopRight"></path>
        <path d="M144 790L-958 1892" stroke-width="6" stroke="url(#SvgjsLinearGradient1221)" stroke-linecap="round" class="BottomLeft"></path>
        <path d="M248 1993L1215 1026" stroke-width="6" stroke="url(#SvgjsLinearGradient1223)" stroke-linecap="round" class="TopRight"></path>
        <path d="M1811 1397L414 2794" stroke-width="10" stroke="url(#SvgjsLinearGradient1221)" stroke-linecap="round" class="BottomLeft"></path>
        <path d="M1457 724L2019 162" stroke-width="8" stroke="url(#SvgjsLinearGradient1224)" stroke-linecap="round" class="BottomLeft"></path>
        <path d="M1265 1766L2684 347" stroke-width="8" stroke="url(#SvgjsLinearGradient1221)" stroke-linecap="round" class="BottomLeft"></path>
        <path d="M637 1999L1260 1376" stroke-width="10" stroke="url(#SvgjsLinearGradient1221)" stroke-linecap="round" class="BottomLeft"></path>
        <path d="M1387 1795L773 2409" stroke-width="8" stroke="url(#SvgjsLinearGradient1222)" stroke-linecap="round" class="TopRight"></path>
        <path d="M17 1981L-1103 3101" stroke-width="10" stroke="url(#SvgjsLinearGradient1221)" stroke-linecap="round" class="BottomLeft"></path>
        <path d="M85 1448L931 602" stroke-width="6" stroke="url(#SvgjsLinearGradient1221)" stroke-linecap="round" class="BottomLeft"></path>
        <path d="M1304 1669L765 2208" stroke-width="8" stroke="url(#SvgjsLinearGradient1223)" stroke-linecap="round" class="TopRight"></path>
        <path d="M1243 37L571 709" stroke-width="8" stroke="url(#SvgjsLinearGradient1224)" stroke-linecap="round" class="BottomLeft"></path>
        <path d="M1560 166L892 834" stroke-width="8" stroke="url(#SvgjsLinearGradient1224)" stroke-linecap="round" class="BottomLeft"></path>
        <path d="M117 531L-843 1491" stroke-width="8" stroke="url(#SvgjsLinearGradient1223)" stroke-linecap="round" class="TopRight"></path>
        <path d="M1079 388L2247 -780" stroke-width="10" stroke="url(#SvgjsLinearGradient1222)" stroke-linecap="round" class="TopRight"></path>
        <path d="M446 1352L-291 2089" stroke-width="8" stroke="url(#SvgjsLinearGradient1222)" stroke-linecap="round" class="TopRight"></path>
        <path d="M1282 177L311 1148" stroke-width="6" stroke="url(#SvgjsLinearGradient1221)" stroke-linecap="round" class="BottomLeft"></path>
        <path d="M1821 1763L2926 658" stroke-width="10" stroke="url(#SvgjsLinearGradient1222)" stroke-linecap="round" class="TopRight"></path>
        <path d="M152 641L1423 -630" stroke-width="10" stroke="url(#SvgjsLinearGradient1222)" stroke-linecap="round" class="TopRight"></path>
        <path d="M1452 866L2457 -139" stroke-width="6" stroke="url(#SvgjsLinearGradient1222)" stroke-linecap="round" class="TopRight"></path>
        <path d="M1031 1928L201 2758" stroke-width="10" stroke="url(#SvgjsLinearGradient1221)" stroke-linecap="round" class="BottomLeft"></path>
        <path d="M1080 1467L429 2118" stroke-width="8" stroke="url(#SvgjsLinearGradient1224)" stroke-linecap="round" class="BottomLeft"></path>
        <path d="M236 850L1650 -564" stroke-width="6" stroke="url(#SvgjsLinearGradient1224)" stroke-linecap="round" class="BottomLeft"></path>
        <path d="M508 1209L1269 448" stroke-width="8" stroke="url(#SvgjsLinearGradient1223)" stroke-linecap="round" class="TopRight"></path>
        <path d="M1542 82L747 877" stroke-width="8" stroke="url(#SvgjsLinearGradient1223)" stroke-linecap="round" class="TopRight"></path>
        <path d="M967 942L-358 2267" stroke-width="10" stroke="url(#SvgjsLinearGradient1224)" stroke-linecap="round" class="BottomLeft"></path>
        <path d="M1317 420L2567 -830" stroke-width="6" stroke="url(#SvgjsLinearGradient1224)" stroke-linecap="round" class="BottomLeft"></path>
        <path d="M1120 1651L2085 686" stroke-width="8" stroke="url(#SvgjsLinearGradient1222)" stroke-linecap="round" class="TopRight"></path>
        <path d="M1559 1226L2583 202" stroke-width="6" stroke="url(#SvgjsLinearGradient1223)" stroke-linecap="round" class="TopRight"></path>
        <path d="M292 38L-499 829" stroke-width="6" stroke="url(#SvgjsLinearGradient1224)" stroke-linecap="round" class="BottomLeft"></path>
        <path d="M401 1182L-558 2141" stroke-width="8" stroke="url(#SvgjsLinearGradient1223)" stroke-linecap="round" class="TopRight"></path>
        <path d="M640 1995L-846 3481" stroke-width="6" stroke="url(#SvgjsLinearGradient1224)" stroke-linecap="round" class="BottomLeft"></path>
        <path d="M564 1665L-139 2368" stroke-width="8" stroke="url(#SvgjsLinearGradient1221)" stroke-linecap="round" class="BottomLeft"></path>
        <path d="M1234 1503L199 2538" stroke-width="10" stroke="url(#SvgjsLinearGradient1223)" stroke-linecap="round" class="TopRight"></path>
        <path d="M530 924L1135 319" stroke-width="10" stroke="url(#SvgjsLinearGradient1222)" stroke-linecap="round" class="TopRight"></path>
        <path d="M1201 310L-133 1644" stroke-width="10" stroke="url(#SvgjsLinearGradient1222)" stroke-linecap="round" class="TopRight"></path>
        <path d="M822 1863L-579 3264" stroke-width="10" stroke="url(#SvgjsLinearGradient1221)" stroke-linecap="round" class="BottomLeft"></path>
        <path d="M1018 1937L-241 3196" stroke-width="8" stroke="url(#SvgjsLinearGradient1224)" stroke-linecap="round" class="BottomLeft"></path>
        <path d="M186 1377L-1204 2767" stroke-width="10" stroke="url(#SvgjsLinearGradient1223)" stroke-linecap="round" class="TopRight"></path>
        <path d="M1835 591L3326 -900" stroke-width="8" stroke="url(#SvgjsLinearGradient1221)" stroke-linecap="round" class="BottomLeft"></path>
        <path d="M837 1437L316 1958" stroke-width="6" stroke="url(#SvgjsLinearGradient1222)" stroke-linecap="round" class="TopRight"></path>
        <path d="M544 1366L-503 2413" stroke-width="6" stroke="url(#SvgjsLinearGradient1222)" stroke-linecap="round" class="TopRight"></path>
        <path d="M760 389L2233 -1084" stroke-width="8" stroke="url(#SvgjsLinearGradient1224)" stroke-linecap="round" class="BottomLeft"></path>
        <path d="M532 1938L-446 2916" stroke-width="6" stroke="url(#SvgjsLinearGradient1224)" stroke-linecap="round" class="BottomLeft"></path>
        <path d="M716 426L40 1102" stroke-width="8" stroke="url(#SvgjsLinearGradient1222)" stroke-linecap="round" class="TopRight"></path>
        <path d="M1508 504L2423 -411" stroke-width="10" stroke="url(#SvgjsLinearGradient1221)" stroke-linecap="round" class="BottomLeft"></path>
        <path d="M975 1049L-18 2042" stroke-width="6" stroke="url(#SvgjsLinearGradient1222)" stroke-linecap="round" class="TopRight"></path>
        <path d="M565 262L1142 -315" stroke-width="8" stroke="url(#SvgjsLinearGradient1221)" stroke-linecap="round" class="BottomLeft"></path>
        <path d="M1781 1671L3264 188" stroke-width="6" stroke="url(#SvgjsLinearGradient1223)" stroke-linecap="round" class="TopRight"></path>
        <path d="M861 317L29 1149" stroke-width="8" stroke="url(#SvgjsLinearGradient1221)" stroke-linecap="round" class="BottomLeft"></path>
        <path d="M641 1420L1423 638" stroke-width="6" stroke="url(#SvgjsLinearGradient1223)" stroke-linecap="round" class="TopRight"></path>
        <path d="M1910 1666L2729 847" stroke-width="8" stroke="url(#SvgjsLinearGradient1221)" stroke-linecap="round" class="BottomLeft"></path>
        <path d="M452 1456L-689 2597" stroke-width="8" stroke="url(#SvgjsLinearGradient1222)" stroke-linecap="round" class="TopRight"></path>
        <path d="M896 1425L1723 598" stroke-width="10" stroke="url(#SvgjsLinearGradient1222)" stroke-linecap="round" class="TopRight"></path>
        <path d="M1660 1838L2827 671" stroke-width="6" stroke="url(#SvgjsLinearGradient1222)" stroke-linecap="round" class="TopRight"></path>
        <path d="M1534 612L689 1457" stroke-width="6" stroke="url(#SvgjsLinearGradient1224)" stroke-linecap="round" class="BottomLeft"></path>
        <path d="M859 68L281 646" stroke-width="8" stroke="url(#SvgjsLinearGradient1224)" stroke-linecap="round" class="BottomLeft"></path>
    </g>
    <defs>
        <mask id="SvgjsMask1220">
            <rect width="2000" height="2000" fill="#ffffff"></rect>
        </mask>
        <linearGradient x1="100%" y1="0%" x2="0%" y2="100%" id="SvgjsLinearGradient1221">
            <stop stop-color="rgba(255, 167, 167, 0)" offset="0"></stop>
            <stop stop-color="rgba(255, 167, 167, 1)" offset="1"></stop>
        </linearGradient>
        <linearGradient x1="0%" y1="100%" x2="100%" y2="0%" id="SvgjsLinearGradient1222">
            <stop stop-color="rgba(255, 255, 255, 0)" offset="0"></stop>
            <stop stop-color="rgba(255, 255, 255, 0.48)" offset="1"></stop>
        </linearGradient>
        <linearGradient x1="0%" y1="100%" x2="100%" y2="0%" id="SvgjsLinearGradient1223">
            <stop stop-color="rgba(255, 167, 167, 0)" offset="0"></stop>
            <stop stop-color="rgba(255, 167, 167, 1)" offset="1"></stop>
        </linearGradient>
        <linearGradient x1="100%" y1="0%" x2="0%" y2="100%" id="SvgjsLinearGradient1224">
            <stop stop-color="rgba(255, 255, 255, 0)" offset="0"></stop>
            <stop stop-color="rgba(255, 255, 255, 0.48)" offset="1"></stop>
        </linearGradient>
    </defs>
</svg>