<svg xmlns="http://www.w3.org/2000/svg" version="1.1" xmlns:xlink="http://www.w3.org/1999/xlink" xmlns:svgjs="http://svgjs.com/svgjs" width="2440" height="1000" preserveAspectRatio="none" viewBox="0 0 2440 1000"><g mask="url(&quot;#SvgjsMask1374&quot;)" fill="none"><rect width="2440" height="1000" x="0" y="0" fill="rgba(37, 41, 52, 1)"></rect><path d="M826 551L78 1299" stroke-width="6" stroke="url(#SvgjsLinearGradient1375)" stroke-linecap="round" class="BottomLeft"></path><path d="M938 539L1219 258" stroke-width="6" stroke="url(#SvgjsLinearGradient1375)" stroke-linecap="round" class="BottomLeft"></path><path d="M2267 213L1912 568" stroke-width="8" stroke="url(#SvgjsLinearGradient1376)" stroke-linecap="round" class="BottomLeft"></path><path d="M860 806L605 1061" stroke-width="10" stroke="url(#SvgjsLinearGradient1377)" stroke-linecap="round" class="TopRight"></path><path d="M1240 880L1796 324" stroke-width="8" stroke="url(#SvgjsLinearGradient1375)" stroke-linecap="round" class="BottomLeft"></path><path d="M2146 459L1757 848" stroke-width="10" stroke="url(#SvgjsLinearGradient1376)" stroke-linecap="round" class="BottomLeft"></path><path d="M2122 460L1834 748" stroke-width="6" stroke="url(#SvgjsLinearGradient1378)" stroke-linecap="round" class="TopRight"></path><path d="M81 346L-609 1036" stroke-width="6" stroke="url(#SvgjsLinearGradient1377)" stroke-linecap="round" class="TopRight"></path><path d="M2291 234L2704 -179" stroke-width="10" stroke="url(#SvgjsLinearGradient1378)" stroke-linecap="round" class="TopRight"></path><path d="M1160 164L856 468" stroke-width="6" stroke="url(#SvgjsLinearGradient1375)" stroke-linecap="round" class="BottomLeft"></path><path d="M1729 100L1311 518" stroke-width="8" stroke="url(#SvgjsLinearGradient1375)" stroke-linecap="round" class="BottomLeft"></path><path d="M1816 555L1224 1147" stroke-width="8" stroke="url(#SvgjsLinearGradient1375)" stroke-linecap="round" class="BottomLeft"></path><path d="M927 943L188 1682" stroke-width="10" stroke="url(#SvgjsLinearGradient1378)" stroke-linecap="round" class="TopRight"></path><path d="M2364 743L1931 1176" stroke-width="8" stroke="url(#SvgjsLinearGradient1377)" stroke-linecap="round" class="TopRight"></path><path d="M623 132L1141 -386" stroke-width="8" stroke="url(#SvgjsLinearGradient1377)" stroke-linecap="round" class="TopRight"></path><path d="M339 550L977 -88" stroke-width="8" stroke="url(#SvgjsLinearGradient1376)" stroke-linecap="round" class="BottomLeft"></path><path d="M2251 44L1903 392" stroke-width="6" stroke="url(#SvgjsLinearGradient1375)" stroke-linecap="round" class="BottomLeft"></path><path d="M1254 446L1745 -45" stroke-width="8" stroke="url(#SvgjsLinearGradient1378)" stroke-linecap="round" class="TopRight"></path><path d="M809 716L108 1417" stroke-width="10" stroke="url(#SvgjsLinearGradient1377)" stroke-linecap="round" class="TopRight"></path><path d="M1655 893L1148 1400" stroke-width="6" stroke="url(#SvgjsLinearGradient1378)" stroke-linecap="round" class="TopRight"></path><path d="M2413 412L2976 -151" stroke-width="10" stroke="url(#SvgjsLinearGradient1377)" stroke-linecap="round" class="TopRight"></path><path d="M432 85L14 503" stroke-width="6" stroke="url(#SvgjsLinearGradient1377)" stroke-linecap="round" class="TopRight"></path><path d="M1972 877L2690 159" stroke-width="10" stroke="url(#SvgjsLinearGradient1376)" stroke-linecap="round" class="BottomLeft"></path><path d="M1097 79L826 350" stroke-width="10" stroke="url(#SvgjsLinearGradient1376)" stroke-linecap="round" class="BottomLeft"></path><path d="M989 314L1311 -8" stroke-width="10" stroke="url(#SvgjsLinearGradient1378)" stroke-linecap="round" class="TopRight"></path><path d="M1645 97L1092 650" stroke-width="8" stroke="url(#SvgjsLinearGradient1376)" stroke-linecap="round" class="BottomLeft"></path><path d="M151 489L862 -222" stroke-width="8" stroke="url(#SvgjsLinearGradient1377)" stroke-linecap="round" class="TopRight"></path><path d="M183 257L-212 652" stroke-width="10" stroke="url(#SvgjsLinearGradient1376)" stroke-linecap="round" class="BottomLeft"></path><path d="M1959 926L1500 1385" stroke-width="10" stroke="url(#SvgjsLinearGradient1375)" stroke-linecap="round" class="BottomLeft"></path><path d="M1694 408L1070 1032" stroke-width="10" stroke="url(#SvgjsLinearGradient1378)" stroke-linecap="round" class="TopRight"></path><path d="M1338 183L1030 491" stroke-width="8" stroke="url(#SvgjsLinearGradient1375)" stroke-linecap="round" class="BottomLeft"></path><path d="M497 468L1021 -56" stroke-width="10" stroke="url(#SvgjsLinearGradient1377)" stroke-linecap="round" class="TopRight"></path><path d="M2201 878L1810 1269" stroke-width="8" stroke="url(#SvgjsLinearGradient1378)" stroke-linecap="round" class="TopRight"></path><path d="M1872 496L2467 -99" stroke-width="8" stroke="url(#SvgjsLinearGradient1377)" stroke-linecap="round" class="TopRight"></path><path d="M2421 378L2136 663" stroke-width="8" stroke="url(#SvgjsLinearGradient1378)" stroke-linecap="round" class="TopRight"></path><path d="M532 4L860 -324" stroke-width="6" stroke="url(#SvgjsLinearGradient1378)" stroke-linecap="round" class="TopRight"></path><path d="M1446 635L993 1088" stroke-width="6" stroke="url(#SvgjsLinearGradient1376)" stroke-linecap="round" class="BottomLeft"></path><path d="M1681 61L2266 -524" stroke-width="8" stroke="url(#SvgjsLinearGradient1376)" stroke-linecap="round" class="BottomLeft"></path><path d="M1855 457L2514 -202" stroke-width="8" stroke="url(#SvgjsLinearGradient1375)" stroke-linecap="round" class="BottomLeft"></path><path d="M606 3L-69 678" stroke-width="6" stroke="url(#SvgjsLinearGradient1375)" stroke-linecap="round" class="BottomLeft"></path><path d="M253 79L927 -595" stroke-width="8" stroke="url(#SvgjsLinearGradient1376)" stroke-linecap="round" class="BottomLeft"></path><path d="M1136 504L756 884" stroke-width="8" stroke="url(#SvgjsLinearGradient1377)" stroke-linecap="round" class="TopRight"></path><path d="M1623 437L2369 -309" stroke-width="10" stroke="url(#SvgjsLinearGradient1377)" stroke-linecap="round" class="TopRight"></path><path d="M2368 411L1669 1110" stroke-width="6" stroke="url(#SvgjsLinearGradient1378)" stroke-linecap="round" class="TopRight"></path><path d="M616 757L246 1127" stroke-width="6" stroke="url(#SvgjsLinearGradient1378)" stroke-linecap="round" class="TopRight"></path><path d="M2427 581L1903 1105" stroke-width="6" stroke="url(#SvgjsLinearGradient1377)" stroke-linecap="round" class="TopRight"></path><path d="M382 74L-61 517" stroke-width="10" stroke="url(#SvgjsLinearGradient1377)" stroke-linecap="round" class="TopRight"></path><path d="M303 166L886 -417" stroke-width="6" stroke="url(#SvgjsLinearGradient1378)" stroke-linecap="round" class="TopRight"></path><path d="M1534 573L810 1297" stroke-width="6" stroke="url(#SvgjsLinearGradient1376)" stroke-linecap="round" class="BottomLeft"></path><path d="M2135 983L1662 1456" stroke-width="6" stroke="url(#SvgjsLinearGradient1378)" stroke-linecap="round" class="TopRight"></path><path d="M2366 64L2912 -482" stroke-width="8" stroke="url(#SvgjsLinearGradient1377)" stroke-linecap="round" class="TopRight"></path><path d="M537 610L-196 1343" stroke-width="8" stroke="url(#SvgjsLinearGradient1377)" stroke-linecap="round" class="TopRight"></path><path d="M1091 636L345 1382" stroke-width="6" stroke="url(#SvgjsLinearGradient1377)" stroke-linecap="round" class="TopRight"></path><path d="M680 321L1121 -120" stroke-width="8" stroke="url(#SvgjsLinearGradient1378)" stroke-linecap="round" class="TopRight"></path><path d="M1374 583L1708 249" stroke-width="10" stroke="url(#SvgjsLinearGradient1377)" stroke-linecap="round" class="TopRight"></path><path d="M463 940L-85 1488" stroke-width="10" stroke="url(#SvgjsLinearGradient1375)" stroke-linecap="round" class="BottomLeft"></path><path d="M120 55L766 -591" stroke-width="8" stroke="url(#SvgjsLinearGradient1378)" stroke-linecap="round" class="TopRight"></path><path d="M1180 47L1779 -552" stroke-width="6" stroke="url(#SvgjsLinearGradient1377)" stroke-linecap="round" class="TopRight"></path><path d="M1888 947L1347 1488" stroke-width="6" stroke="url(#SvgjsLinearGradient1377)" stroke-linecap="round" class="TopRight"></path><path d="M1720 183L1126 777" stroke-width="10" stroke="url(#SvgjsLinearGradient1377)" stroke-linecap="round" class="TopRight"></path><path d="M1029 915L1399 545" stroke-width="6" stroke="url(#SvgjsLinearGradient1378)" stroke-linecap="round" class="TopRight"></path><path d="M1360 952L2000 312" stroke-width="10" stroke="url(#SvgjsLinearGradient1378)" stroke-linecap="round" class="TopRight"></path><path d="M194 19L-446 659" stroke-width="8" stroke="url(#SvgjsLinearGradient1378)" stroke-linecap="round" class="TopRight"></path><path d="M58 728L332 454" stroke-width="10" stroke="url(#SvgjsLinearGradient1377)" stroke-linecap="round" class="TopRight"></path><path d="M2331 794L2702 423" stroke-width="10" stroke="url(#SvgjsLinearGradient1378)" stroke-linecap="round" class="TopRight"></path><path d="M1203 679L1574 308" stroke-width="8" stroke="url(#SvgjsLinearGradient1377)" stroke-linecap="round" class="TopRight"></path></g><defs><mask id="SvgjsMask1374"><rect width="2440" height="1000" fill="#ffffff"></rect></mask><linearGradient x1="100%" y1="0%" x2="0%" y2="100%" id="SvgjsLinearGradient1375"><stop stop-color="rgba(255, 167, 167, 0)" offset="0"></stop><stop stop-color="rgba(255, 167, 167, 1)" offset="1"></stop></linearGradient><linearGradient x1="100%" y1="0%" x2="0%" y2="100%" id="SvgjsLinearGradient1376"><stop stop-color="rgba(255, 255, 255, 0)" offset="0"></stop><stop stop-color="rgba(255, 255, 255, 0.48)" offset="1"></stop></linearGradient><linearGradient x1="0%" y1="100%" x2="100%" y2="0%" id="SvgjsLinearGradient1377"><stop stop-color="rgba(255, 167, 167, 0)" offset="0"></stop><stop stop-color="rgba(255, 167, 167, 1)" offset="1"></stop></linearGradient><linearGradient x1="0%" y1="100%" x2="100%" y2="0%" id="SvgjsLinearGradient1378"><stop stop-color="rgba(255, 255, 255, 0)" offset="0"></stop><stop stop-color="rgba(255, 255, 255, 0.48)" offset="1"></stop></linearGradient></defs></svg>